<svg viewBox="0 0 1024 1024" version="1.1"
  xmlns="http://www.w3.org/2000/svg" fill="currentColor">
  <path
    d="M913.471651 232.811984c21.360213 0 38.706426 4.014 52.038639 12.185356 13.332213 8.171357 22.076998 18.779784 26.521069 32.111998 4.444071 13.332213 4.444071 28.241355 0 44.870782s-14.048999 32.972141-28.814783 49.314854c-59.779924 66.374353-117.266135 131.315134-172.601988 194.822344-55.335853 63.50721-108.808064 122.857063-160.416632 178.192916-13.905642 14.622428-30.678426 26.377712-49.314854 34.262355-18.349713 8.027999-38.132997 12.328713-58.059638 12.758784-19.639927 0.430071-39.136497-2.867143-57.486211-9.46157-17.919642-6.307714-33.832283-16.916142-46.447711-30.965141-28.814784-31.681926-58.633067-64.223996-89.598208-97.339493l-95.189136-99.633208c-30.965141-33.258855-61.786924-65.800924-92.465351-97.912921S82.430351 392.798544 55.909282 362.550189c-12.472071-14.048999-20.643427-28.528069-24.370713-43.723926-3.727285-15.052499-3.297214-28.958141 1.146857-41.573568 4.444071-12.472071 12.902142-22.793784 25.51757-30.965141 12.472071-8.171357 28.814784-12.185356 48.741425-12.185356 25.804284 0 61.356853-0.143357 106.801064-0.573429s95.045779-0.573429 148.804704-0.573428l550.921462-0.143357z"
  ></path>
</svg>