<svg viewBox="0 0 1024 1024" version="1.1"
  xmlns="http://www.w3.org/2000/svg" fill="currentColor">
  <path
    d="M512.8 1022.4c-68.8 0-136-13.6-199.2-40-60.8-25.6-115.2-62.4-162.4-109.6C104 826.4 67.2 771.2 41.6 710.4c-26.4-63.2-40-129.6-40-199.2s13.6-136 40-199.2c25.6-60.8 62.4-115.2 109.6-162.4C198.4 102.4 252.8 65.6 313.6 40c63.2-26.4 129.6-40 199.2-40 48 0 96 6.4 141.6 20 16.8 4.8 26.4 22.4 21.6 39.2-4.8 16.8-22.4 27.2-39.2 21.6-40-11.2-81.6-17.6-124-17.6C266.4 64.8 66.4 265.6 66.4 512s200.8 447.2 447.2 447.2S960 758.4 960 512c0-8.8 0-17.6-0.8-25.6-0.8-17.6 12.8-32.8 30.4-33.6s32.8 12.8 33.6 30.4c0.8 9.6 0.8 19.2 0.8 29.6 0 68.8-13.6 136-40 199.2-25.6 60.8-62.4 115.2-109.6 162.4S772.8 956.8 712 982.4c-63.2 26.4-130.4 40-199.2 40z"
  />
  <path
    d="M672 559.2H348c-17.6 0-32-14.4-32-32s14.4-32 32-32H672c17.6 0 32 14.4 32 32s-14.4 32-32 32z"
  />
  <path
    d="M510.4 784.8c-17.6 0-32-14.4-32-32V452c0-17.6 14.4-32 32-32s32 14.4 32 32v300.8c0 17.6-14.4 32-32 32z"
  />
  <path
    d="M642.4 681.6H377.6c-17.6 0-32-14.4-32-32s14.4-32 32-32h264.8c17.6 0 32 14.4 32 32s-13.6 32-32 32zM512 480c-8 0-16-3.2-22.4-9.6L359.2 340.8c-12.8-12.8-12.8-32.8 0-45.6s32.8-12.8 45.6 0l129.6 129.6c12.8 12.8 12.8 32.8 0 45.6C528 476.8 520 480 512 480z"
  />
  <path
    d="M512 480c-8 0-16-3.2-22.4-9.6-12.8-12.8-12.8-32.8 0-45.6l129.6-129.6c12.8-12.8 32.8-12.8 45.6 0s12.8 32.8 0 45.6L534.4 470.4c-5.6 6.4-14.4 9.6-22.4 9.6zM948.8 263.2H768.8c-17.6 0-32-14.4-32-32s14.4-32 32-32h180c17.6 0 32 14.4 32 32s-14.4 32-32 32z"
  />
  <path
    d="M890.4 140.8v180c0 17.6-14.4 32-32 32s-32-14.4-32-32V140.8c0-17.6 14.4-32 32-32s32 14.4 32 32z"
  />
</svg>