<svg viewBox="0 0 1082 1024" version="1.1"
  xmlns="http://www.w3.org/2000/svg" fill="currentColor">
  <path
    d="M1051.83247 149.382538c0.050002 8.750425-3.400165 17.138332-9.587965 23.326132a32.75784 32.75784 0 0 1-23.326133 9.612967H805.358007c-8.737924 0.012501-17.125831-3.450167-23.313631-9.637968a32.899097 32.899097 0 0 1-9.637968-23.313632c0-18.13838 14.775717-32.864095 32.914097-32.901597l213.610368 0.050003c8.737924-0.037502 17.113331 3.412666 23.28863 9.587965a32.745339 32.745339 0 0 1 9.612967 23.27613zM518.356578 493.674248c-4.262707-8.000388-7.962886-15.575756-12.13809-22.86361-38.226855-67.553279-76.628719-135.031554-114.718067-202.709838-1.575076-2.937643-3.537672-3.325161-6.425312-3.325162h-52.365042l-5.025244 0.250013L467.954131 507.899939h-118.305742v49.714912h137.756686v78.07879h-137.881692v45.802223h138.394217v116.093135h56.02772V681.283354h133.456477v-45.977232h-134.13151v-78.116291h134.256516v-49.377397h-109.992839l139.156754-242.986793c-19.113428 0-36.739283 0.175008-54.315136-0.087504-4.037696-0.087504-6.125297 1.112554-8.000388 4.562721-16.90082 30.388975-33.801641 60.615442-50.914971 90.841909a59544.890021 59544.890021 0 0 0-75.103645 133.531481z m0 0"
  />
  <path
    d="M530.15715 73.178839H517.119018C274.819757 73.39135 78.32272 269.675876 78.022706 512.025139c0 241.661729 197.222072 438.933804 439.183816 438.846299 242.136752-0.087504 439.108812-197.047064 439.108812-438.846299V510.025042a36.273011 36.273011 0 0 1 17.613355-32.901597 36.274261 36.274261 0 0 1 37.314311 0A36.298012 36.298012 0 0 1 1028.856355 510.025042v-24.563693c0.512525 8.812928 0.687533 17.663357 0.687533 26.56379 0 282.2762-229.786153 511.974849-512.274863 511.974848C234.467799 1024.04999 4.844154 794.301339 4.844154 511.937634S234.805315-0.299727 517.681545 0.000288h12.513107c9.700471 0 19.000922 3.862687 25.838754 10.738021a36.421768 36.421768 0 0 1 10.638017 25.876256 36.46427 36.46427 0 0 1-36.514273 36.564274z m0 0"
  />
</svg>