<svg class="icon" width="200px" height="200.00px" viewBox="0 0 1024 1024" version="1.1"
  xmlns="http://www.w3.org/2000/svg" fill="currentColor">
  <path
    d="M612.41479 953.795195h-68.800831V770.667754c0-17.470872-14.146157-31.617028-31.604749-31.617028-17.470872 0-31.616005 14.146157-31.616005 31.617028v183.127441h-68.774226c-17.470872 0-31.617028 14.146157-31.617028 31.603726 0 17.471895 14.146157 31.618052 31.617028 31.618051h200.796834c17.443243 0 31.589399-14.146157 31.589399-31.618051-0.001023-17.457569-14.14718-31.603725-31.590422-31.603726zM866.062214 221.680425c-10.539009-21.839357-32.675125-35.718431-56.937667-35.718431H397.782884L320.87953 24.984994c-7.551985-15.766047-26.41762-22.430827-42.171388-14.906471-15.752744 7.524355-22.445153 26.404317-14.920797 42.157061l63.897158 133.727433H214.867266c-24.249239 0-46.384331 13.879074-56.924363 35.718432-10.581988 21.85266-7.678874 47.82105 7.397466 66.828924l297.14399 374.425966a63.258616 63.258616 0 0 0 49.524851 23.924851c19.30361 0 37.522517-8.820882 49.541224-23.924851L858.665771 288.510373c15.07634-19.007875 17.964104-44.976264 7.396443-66.829948zM530.327377 463.450358l-42.975704-90.006764h114.397218l-71.421514 90.006764z m-18.318167 160.160403L214.867266 249.199121h143.027222l39.211992 82.100715h-62.150378l177.053108 223.058816 176.999896-223.058816H467.203837l-39.211991-82.100715h381.133725l-297.116361 374.41164z"
  />
</svg>