<svg class="icon" width="200px" height="200.00px" viewBox="0 0 1024 1024" version="1.1"
  xmlns="http://www.w3.org/2000/svg" fill="currentColor">
  <path
    d="M253.155556 866.607407c6.637037 0 12.325926-1.896296 17.066666-5.688888l380.207408-306.251852c5.688889 0 11.377778 0.948148 17.066666 0.948148 137.481481 0 248.414815-111.881481 248.414815-248.414815C916.859259 168.77037 804.977778 56.888889 667.496296 56.888889 530.962963 56.888889 419.081481 168.77037 419.081481 305.303704c0 5.688889 0 11.377778 0.948149 17.066666L113.777778 703.525926c-8.533333 11.377778-7.585185 26.548148 1.896296 36.977778l48.355556 48.355555c-6.637037 21.807407-13.274074 56.888889 0 92.918519 12.325926 34.133333 39.822222 60.681481 80.592592 77.748148 13.274074 5.688889 27.496296 7.585185 41.718519 7.585185 42.666667 0 89.125926-21.807407 136.533333-44.562963 98.607407-46.459259 209.540741-98.607407 331.851852-2.844444 12.325926 9.481481 29.392593 7.585185 38.874074-4.740741 9.481481-12.325926 7.585185-29.392593-4.740741-38.874074C640 760.414815 500.622222 824.888889 399.17037 872.296296c-54.992593 25.6-102.4 48.355556-133.688889 35.081482-25.6-10.42963-42.666667-26.548148-50.251851-45.511111-2.844444-8.533333-3.792593-17.066667-3.792593-25.6l21.807407 21.807407c5.688889 5.688889 12.325926 8.533333 19.911112 8.533333z m414.34074-754.725926c107.140741 0 193.422222 87.22963 193.422223 193.422223 0 107.140741-87.22963 193.422222-193.422223 193.422222-106.192593 0.948148-193.422222-86.281481-193.422222-193.422222 0-106.192593 87.22963-193.422222 193.422222-193.422223zM211.437037 757.57037l-38.874074-38.874074 262.637037-326.162963c25.6 67.318519 78.696296 120.414815 146.014815 146.014815L255.051852 801.185185l-35.081482-35.081481c-1.896296-2.844444-4.740741-5.688889-8.533333-8.533334z"
  />
  <path
    d="M421.925926 515.792593l-59.733333 59.733333c-10.42963 10.42963-10.42963 28.444444 0 38.874074 4.740741 4.740741 12.325926 8.533333 19.911111 8.533333 6.637037 0 14.222222-2.844444 19.911111-8.533333l59.733333-59.733333c10.42963-10.42963 10.42963-28.444444 0-38.874074-11.377778-10.42963-29.392593-10.42963-39.822222 0z"
  />
  <path
    d="M325.214815 651.377778m-28.444445 0a28.444444 28.444444 0 1 0 56.888889 0 28.444444 28.444444 0 1 0-56.888889 0Z"
  />
</svg>